<svg width="256" height="256" viewBox="0 0 256 256" xmlns="http://www.w3.org/2000/svg" role="img" aria-label="WinFi Dialer">
  <defs>
    <linearGradient id="g" x1="20%" y1="10%" x2="85%" y2="90%">
      <stop stop-color="#f5b400" />
      <stop offset="0.5" stop-color="#ff8f3f" />
      <stop offset="1" stop-color="#1dd3b0" />
    </linearGradient>
    <filter id="s" x="-20%" y="-20%" width="140%" height="140%">
      <feDropShadow dx="0" dy="10" stdDeviation="12" flood-color="#0f172a" flood-opacity="0.18" />
    </filter>
  </defs>
  <rect x="12" y="12" width="232" height="232" rx="64" fill="url(#g)" filter="url(#s)"/>
  <path fill="#0b1021" d="M76 164l-22-72h26l10 36 11-36h23l11 36 10-36h26l-21 72h-26l-11-36-11 36z"/>
  <path fill="#0b1021" d="M186 92c11 0 20 9 20 20s-9 20-20 20-20-9-20-20 9-20 20-20zm0 16a4 4 0 100 8 4 4 0 000-8z"/>
</svg>
